<svg width="188.009375px" height="77.6px" xmlns="http://www.w3.org/2000/svg" viewBox="155.9953125 36.2 188.009375 77.6" style="background: rgb(255, 255, 255);" preserveAspectRatio="xMidYMid"><defs><filter id="editing-hole" x="-100%" y="-100%" width="300%" height="300%"><feFlood flood-color="#000000" result="black"></feFlood><feMorphology operator="dilate" radius="2" in="SourceGraphic" result="erode"></feMorphology><feGaussianBlur in="erode" stdDeviation="4" result="blur"></feGaussianBlur><feOffset in="blur" dx="2" dy="2" result="offset"></feOffset><feComposite operator="atop" in="offset" in2="black" result="merge"></feComposite><feComposite operator="in" in="merge" in2="SourceGraphic" result="inner-shadow"></feComposite></filter></defs><g filter="url(#editing-hole)"><g transform="translate(188.21501129865646, 86.19499969482422)"><path d="M18.97 0.12L18.97 0.12L18.97 0.12Q17.55 0 16.41 0L16.41 0L16.41 0Q15.66 0 14.78 0.06L14.78 0.06L14.78 0.06Q13.90 0.12 13.62 0.12L13.62 0.12L13.62 0.12Q13.13 0.12 13.13-1.00L13.13-1.00L13.13-9.77L13.13-9.77Q13.13-11.67 12.51-12.56L12.51-12.56L12.51-12.56Q11.89-13.45 10.90-13.45L10.90-13.45L10.90-13.45Q9.87-13.45 8.65-12.87L8.65-12.87L8.65-12.87Q7.43-12.29 6.36-11.40L6.36-11.40L6.36-3.68L6.36-3.68Q6.36-3.46 6.38-3.33L6.38-3.33L6.38-3.33Q6.40-3.21 6.48-3.05L6.48-3.05L6.48-3.05Q6.56-2.89 6.77-2.81L6.77-2.81L6.77-2.81Q6.97-2.72 7.29-2.72L7.29-2.72L7.29-2.72Q7.85-2.72 8.25-2.55L8.25-2.55L8.25-2.55Q8.64-2.37 8.64-2.02L8.64-2.02L8.64-2.02Q8.64-0.31 8.16 0.12L8.16 0.12L8.16 0.12Q7.27 0 4.80 0L4.80 0L4.80 0Q2.34 0 1.25 0.12L1.25 0.12L1.25 0.12Q0.76-0.32 0.76-2.02L0.76-2.02L0.76-2.02Q0.76-2.37 1.16-2.55L1.16-2.55L1.16-2.55Q1.55-2.72 2.11-2.72L2.11-2.72L2.11-2.72Q2.68-2.72 2.86-2.97L2.86-2.97L2.86-2.97Q3.03-3.21 3.03-3.65L3.03-3.65L3.03-11.51L3.03-11.51Q3.03-12.29 2.59-12.61L2.59-12.61L2.59-12.61Q2.14-12.93 0.86-12.99L0.86-12.99L0.86-12.99Q0.67-13.04 0.62-13.18L0.62-13.18L0.62-13.18Q0.57-13.33 0.57-13.81L0.57-13.81L0.57-13.81Q0.57-14.56 0.73-15.13L0.73-15.13L0.73-15.13Q0.89-15.70 1.05-15.79L1.05-15.79L1.05-15.79Q2.02-15.63 2.94-15.63L2.94-15.63L2.94-15.63Q3.60-15.63 4.34-15.71L4.34-15.71L4.34-15.71Q5.07-15.79 5.11-15.79L5.11-15.79L5.11-15.79Q5.63-15.79 5.78-15.53L5.78-15.53L5.78-15.53Q5.93-15.28 5.93-14.36L5.93-14.36L5.93-14.36Q5.93-14.25 5.93-13.98L5.93-13.98L5.93-13.98Q5.92-13.71 5.92-13.55L5.92-13.55L5.92-13.55Q7.18-14.66 8.77-15.35L8.77-15.35L8.77-15.35Q10.37-16.04 11.85-16.04L11.85-16.04L11.85-16.04Q13.90-16.04 15.18-14.59L15.18-14.59L15.18-14.59Q16.45-13.14 16.45-10.03L16.45-10.03L16.45-3.74L16.45-3.74Q16.45-2.78 17.18-2.72L17.18-2.72L17.18-2.72Q17.33-2.71 17.57-2.70L17.57-2.70L17.57-2.70Q17.81-2.68 17.95-2.67L17.95-2.67L17.95-2.67Q18.09-2.65 18.30-2.63L18.30-2.63L18.30-2.63Q18.50-2.61 18.62-2.59L18.62-2.59L18.62-2.59Q18.74-2.56 18.89-2.53L18.89-2.53L18.89-2.53Q19.04-2.49 19.13-2.45L19.13-2.45L19.13-2.45Q19.22-2.40 19.30-2.34L19.30-2.34L19.30-2.34Q19.38-2.29 19.42-2.20L19.42-2.20L19.42-2.20Q19.45-2.12 19.45-2.02L19.45-2.02L19.45-2.02Q19.45-0.32 18.97 0.12ZM23.73-18.24L23.73-18.24L23.73-18.24Q23.38-18.24 23.01-18.30L23.01-18.30L23.01-18.30Q22.65-18.37 22.21-18.54L22.21-18.54L22.21-18.54Q21.78-18.72 21.51-19.10L21.51-19.10L21.51-19.10Q21.24-19.48 21.24-20.01L21.24-20.01L21.24-20.01Q21.24-21.81 23.67-21.81L23.67-21.81L23.67-21.81Q24.36-21.81 24.84-21.64L24.84-21.64L24.84-21.64Q25.31-21.46 25.54-21.17L25.54-21.17L25.54-21.17Q25.77-20.87 25.85-20.60L25.85-20.60L25.85-20.60Q25.94-20.32 25.94-20.00L25.94-20.00L25.94-20.00Q25.94-19.34 25.53-18.91L25.53-18.91L25.53-18.91Q25.12-18.49 24.66-18.36L24.66-18.36L24.66-18.36Q24.20-18.24 23.73-18.24ZM26.15-14.36L26.15-14.36L26.15-3.68L26.15-3.68Q26.15-3.46 26.17-3.33L26.17-3.33L26.17-3.33Q26.19-3.21 26.27-3.05L26.27-3.05L26.27-3.05Q26.35-2.89 26.56-2.81L26.56-2.81L26.56-2.81Q26.76-2.72 27.08-2.72L27.08-2.72L27.08-2.72Q27.64-2.72 28.04-2.55L28.04-2.55L28.04-2.55Q28.43-2.37 28.43-2.02L28.43-2.02L28.43-2.02Q28.43-0.31 27.95 0.12L27.95 0.12L27.95 0.12Q26.63 0 24.73 0L24.73 0L24.73 0Q22.75 0 21.04 0.12L21.04 0.12L21.04 0.12Q20.55-0.32 20.55-2.02L20.55-2.02L20.55-2.02Q20.55-2.37 20.95-2.55L20.95-2.55L20.95-2.55Q21.34-2.72 21.90-2.72L21.90-2.72L21.90-2.72Q22.47-2.72 22.65-2.97L22.65-2.97L22.65-2.97Q22.82-3.21 22.82-3.65L22.82-3.65L22.82-11.51L22.82-11.51Q22.82-12.29 22.38-12.61L22.38-12.61L22.38-12.61Q21.93-12.93 20.65-12.99L20.65-12.99L20.65-12.99Q20.46-13.04 20.41-13.18L20.41-13.18L20.41-13.18Q20.36-13.33 20.36-13.81L20.36-13.81L20.36-13.81Q20.36-14.56 20.52-15.13L20.52-15.13L20.52-15.13Q20.68-15.70 20.84-15.79L20.84-15.79L20.84-15.79Q21.97-15.63 23.03-15.63L23.03-15.63L23.03-15.63Q23.73-15.63 24.51-15.71L24.51-15.71L24.51-15.71Q25.28-15.79 25.33-15.79L25.33-15.79L25.33-15.79Q25.84-15.79 25.99-15.53L25.99-15.53L25.99-15.53Q26.15-15.28 26.15-14.36ZM43.48-12.13L43.48-12.13L43.48-12.13Q43.48-11.26 42.87-10.66L42.87-10.66L42.87-10.66Q42.26-10.06 40.96-10.06L40.96-10.06L40.96-10.06Q40.65-10.06 40.58-10.20L40.58-10.20L40.58-10.20Q40.52-10.34 40.46-10.94L40.46-10.94L40.24-13.04L40.24-13.04Q40.14-13.11 39.95-13.21L39.95-13.21L39.95-13.21Q39.77-13.30 39.13-13.47L39.13-13.47L39.13-13.47Q38.50-13.64 37.79-13.64L37.79-13.64L37.79-13.64Q35.57-13.64 34.20-11.92L34.20-11.92L34.20-11.92Q32.83-10.20 32.83-7.82L32.83-7.82L32.83-7.82Q32.83-5.26 34.16-3.82L34.16-3.82L34.16-3.82Q35.49-2.39 38.01-2.39L38.01-2.39L38.01-2.39Q39.18-2.39 40.57-2.89L40.57-2.89L40.57-2.89Q41.95-3.38 42.83-4.16L42.83-4.16L42.83-4.16Q43.67-3.18 43.67-2.29L43.67-2.29L43.67-2.29Q43.67-1.55 42.80-0.92L42.80-0.92L42.80-0.92Q41.94-0.29 40.58 0.05L40.58 0.05L40.58 0.05Q39.23 0.40 37.76 0.40L37.76 0.40L37.76 0.40Q36.06 0.40 34.56-0.14L34.56-0.14L34.56-0.14Q33.06-0.67 31.90-1.69L31.90-1.69L31.90-1.69Q30.75-2.71 30.07-4.33L30.07-4.33L30.07-4.33Q29.40-5.95 29.40-7.98L29.40-7.98L29.40-7.98Q29.40-9.87 30.11-11.43L30.11-11.43L30.11-11.43Q30.82-12.99 31.99-13.98L31.99-13.98L31.99-13.98Q33.16-14.97 34.62-15.51L34.62-15.51L34.62-15.51Q36.08-16.04 37.62-16.04L37.62-16.04L37.62-16.04Q39.18-16.04 40.35-15.73L40.35-15.73L40.35-15.73Q41.51-15.41 42.18-14.85L42.18-14.85L42.18-14.85Q42.85-14.30 43.16-13.62L43.16-13.62L43.16-13.62Q43.48-12.93 43.48-12.13ZM45.38-4.26L45.38-4.26L45.38-4.26Q44.68-5.86 44.68-7.84L44.68-7.84L44.68-7.84Q44.68-9.81 45.38-11.41L45.38-11.41L45.38-11.41Q46.08-13.01 47.26-14.00L47.26-14.00L47.26-14.00Q48.43-14.99 49.88-15.51L49.88-15.51L49.88-15.51Q51.33-16.04 52.91-16.04L52.91-16.04L52.91-16.04Q54.48-16.04 55.93-15.51L55.93-15.51L55.93-15.51Q57.38-14.99 58.54-14.00L58.54-14.00L58.54-14.00Q59.71-13.01 60.41-11.41L60.41-11.41L60.41-11.41Q61.11-9.81 61.11-7.84L61.11-7.84L61.11-7.84Q61.11-5.86 60.41-4.26L60.41-4.26L60.41-4.26Q59.71-2.65 58.54-1.66L58.54-1.66L58.54-1.66Q57.38-0.66 55.93-0.13L55.93-0.13L55.93-0.13Q54.48 0.40 52.91 0.40L52.91 0.40L52.91 0.40Q51.33 0.40 49.88-0.13L49.88-0.13L49.88-0.13Q48.43-0.66 47.26-1.66L47.26-1.66L47.26-1.66Q46.08-2.65 45.38-4.26ZM49.53-12.04L49.53-12.04L49.53-12.04Q48.11-10.53 48.11-7.84L48.11-7.84L48.11-7.84Q48.11-5.14 49.53-3.63L49.53-3.63L49.53-3.63Q50.95-2.11 52.88-2.11L52.88-2.11L52.88-2.11Q53.80-2.11 54.65-2.48L54.65-2.48L54.65-2.48Q55.50-2.84 56.18-3.54L56.18-3.54L56.18-3.54Q56.87-4.23 57.28-5.35L57.28-5.35L57.28-5.35Q57.69-6.46 57.69-7.84L57.69-7.84L57.69-7.84Q57.69-9.21 57.28-10.33L57.28-10.33L57.28-10.33Q56.87-11.44 56.18-12.13L56.18-12.13L56.18-12.13Q55.50-12.82 54.65-13.18L54.65-13.18L54.65-13.18Q53.80-13.55 52.88-13.55L52.88-13.55L52.88-13.55Q50.95-13.55 49.53-12.04ZM62.87-4.26L62.87-4.26L62.87-4.26Q62.17-5.86 62.17-7.84L62.17-7.84L62.17-7.84Q62.17-9.81 62.87-11.41L62.87-11.41L62.87-11.41Q63.57-13.01 64.75-14.00L64.75-14.00L64.75-14.00Q65.92-14.99 67.37-15.51L67.37-15.51L67.37-15.51Q68.82-16.04 70.40-16.04L70.40-16.04L70.40-16.04Q71.97-16.04 73.42-15.51L73.42-15.51L73.42-15.51Q74.87-14.99 76.03-14.00L76.03-14.00L76.03-14.00Q77.20-13.01 77.90-11.41L77.90-11.41L77.90-11.41Q78.60-9.81 78.60-7.84L78.60-7.84L78.60-7.84Q78.60-5.86 77.90-4.26L77.90-4.26L77.90-4.26Q77.20-2.65 76.03-1.66L76.03-1.66L76.03-1.66Q74.87-0.66 73.42-0.13L73.42-0.13L73.42-0.13Q71.97 0.40 70.40 0.40L70.40 0.40L70.40 0.40Q68.82 0.40 67.37-0.13L67.37-0.13L67.37-0.13Q65.92-0.66 64.75-1.66L64.75-1.66L64.75-1.66Q63.57-2.65 62.87-4.26ZM67.02-12.04L67.02-12.04L67.02-12.04Q65.60-10.53 65.60-7.84L65.60-7.84L65.60-7.84Q65.60-5.14 67.02-3.63L67.02-3.63L67.02-3.63Q68.44-2.11 70.37-2.11L70.37-2.11L70.37-2.11Q71.29-2.11 72.14-2.48L72.14-2.48L72.14-2.48Q72.99-2.84 73.67-3.54L73.67-3.54L73.67-3.54Q74.36-4.23 74.77-5.35L74.77-5.35L74.77-5.35Q75.18-6.46 75.18-7.84L75.18-7.84L75.18-7.84Q75.18-9.21 74.77-10.33L74.77-10.33L74.77-10.33Q74.36-11.44 73.67-12.13L73.67-12.13L73.67-12.13Q72.99-12.82 72.14-13.18L72.14-13.18L72.14-13.18Q71.29-13.55 70.37-13.55L70.37-13.55L70.37-13.55Q68.44-13.55 67.02-12.04ZM85.39-19.75L85.39-19.75L85.39-9.80L90.01-12.55L90.01-12.55Q90.76-13.10 90.79-13.15L90.79-13.15L90.79-13.15Q90.81-13.17 90.81-13.21L90.81-13.21L90.81-13.21Q90.81-13.29 90.64-13.31L90.64-13.31L90.64-13.31Q90.47-13.33 90.26-13.34L90.26-13.34L90.26-13.34Q90.04-13.36 89.88-13.57L89.88-13.57L89.88-13.57Q89.71-13.78 89.71-14.21L89.71-14.21L89.71-14.21Q89.71-15.40 90.10-15.82L90.10-15.82L90.10-15.82Q91.08-15.63 93.52-15.63L93.52-15.63L93.52-15.63Q95.29-15.63 96.47-15.82L96.47-15.82L96.47-15.82Q96.94-15.62 96.94-14.06L96.94-14.06L96.94-14.06Q96.94-13.52 96.84-13.30L96.84-13.30L96.84-13.30Q96.74-13.08 96.45-12.99L96.45-12.99L96.45-12.99Q96.15-12.91 95.78-12.85L95.78-12.85L95.78-12.85Q95.41-12.80 94.71-12.52L94.71-12.52L94.71-12.52Q94.01-12.25 93.27-11.73L93.27-11.73L89.72-9.42L89.72-9.42Q93.46-4.76 93.97-4.04L93.97-4.04L93.97-4.04Q94.12-3.84 94.34-3.51L94.34-3.51L94.34-3.51Q94.57-3.18 94.64-3.11L94.64-3.11L94.64-3.11Q94.70-3.03 94.89-2.90L94.89-2.90L94.89-2.90Q95.08-2.77 95.29-2.75L95.29-2.75L95.29-2.75Q95.49-2.72 95.87-2.72L95.87-2.72L95.87-2.72Q97.71-2.72 97.71-2.02L97.71-2.02L97.71-2.02Q97.71-0.32 97.22 0.12L97.22 0.12L97.22 0.12Q95.86 0 94.07 0L94.07 0L94.07 0Q92.64 0 90.70 0.12L90.70 0.12L90.70 0.12Q90.64-0.18 90.53-0.67L90.53-0.67L90.53-0.67Q90.42-1.16 90.37-1.47L90.37-1.47L90.37-1.47Q90.32-1.79 90.32-2.01L90.32-2.01L90.32-2.01Q90.32-2.55 91.58-2.67L91.58-2.67L91.58-2.67Q91.36-3.02 90.85-3.71L90.85-3.71L90.85-3.71Q90.34-4.39 89.22-5.85L89.22-5.85L89.22-5.85Q88.11-7.31 87.47-8.16L87.47-8.16L85.39-6.87L85.39-3.68L85.39-3.68Q85.39-3.46 85.41-3.33L85.41-3.33L85.41-3.33Q85.43-3.21 85.51-3.05L85.51-3.05L85.51-3.05Q85.59-2.89 85.80-2.81L85.80-2.81L85.80-2.81Q86.00-2.72 86.32-2.72L86.32-2.72L86.32-2.72Q86.88-2.72 87.28-2.55L87.28-2.55L87.28-2.55Q87.67-2.37 87.67-2.02L87.67-2.02L87.67-2.02Q87.67-0.31 87.19 0.12L87.19 0.12L87.19 0.12Q85.81 0 83.76 0L83.76 0L83.76 0Q81.56 0 80.27 0.12L80.27 0.12L80.27 0.12Q79.79-0.32 79.79-2.02L79.79-2.02L79.79-2.02Q79.79-2.37 80.19-2.55L80.19-2.55L80.19-2.55Q80.58-2.72 81.14-2.72L81.14-2.72L81.14-2.72Q81.71-2.72 81.88-2.97L81.88-2.97L81.88-2.97Q82.06-3.21 82.06-3.65L82.06-3.65L82.06-17.71L82.06-17.71Q82.06-18.49 81.61-18.81L81.61-18.81L81.61-18.81Q81.17-19.13 79.89-19.19L79.89-19.19L79.89-19.19Q79.70-19.23 79.65-19.38L79.65-19.38L79.65-19.38Q79.60-19.53 79.60-20.01L79.60-20.01L79.60-20.01Q79.60-20.76 79.76-21.33L79.76-21.33L79.76-21.33Q79.92-21.90 80.08-21.99L80.08-21.99L80.08-21.99Q81.30-21.83 82.41-21.83L82.41-21.83L82.41-21.83Q83.07-21.83 83.80-21.91L83.80-21.91L83.80-21.91Q84.54-21.99 84.58-21.99L84.58-21.99L84.58-21.99Q85.09-21.99 85.25-21.73L85.25-21.73L85.25-21.73Q85.40-21.47 85.40-20.55L85.40-20.55L85.40-20.55Q85.40-20.45 85.39-20.18L85.39-20.18L85.39-20.18Q85.39-19.91 85.39-19.75ZM102.14-18.24L102.14-18.24L102.14-18.24Q101.79-18.24 101.43-18.30L101.43-18.30L101.43-18.30Q101.06-18.37 100.63-18.54L100.63-18.54L100.63-18.54Q100.20-18.72 99.92-19.10L99.92-19.10L99.92-19.10Q99.65-19.48 99.65-20.01L99.65-20.01L99.65-20.01Q99.65-21.81 102.08-21.81L102.08-21.81L102.08-21.81Q102.77-21.81 103.25-21.64L103.25-21.64L103.25-21.64Q103.73-21.46 103.95-21.17L103.95-21.17L103.95-21.17Q104.18-20.87 104.27-20.60L104.27-20.60L104.27-20.60Q104.36-20.32 104.36-20.00L104.36-20.00L104.36-20.00Q104.36-19.34 103.95-18.91L103.95-18.91L103.95-18.91Q103.54-18.49 103.07-18.36L103.07-18.36L103.07-18.36Q102.61-18.24 102.14-18.24ZM104.56-14.36L104.56-14.36L104.56-3.68L104.56-3.68Q104.56-3.46 104.58-3.33L104.58-3.33L104.58-3.33Q104.60-3.21 104.69-3.05L104.69-3.05L104.69-3.05Q104.77-2.89 104.97-2.81L104.97-2.81L104.97-2.81Q105.18-2.72 105.50-2.72L105.50-2.72L105.50-2.72Q106.05-2.72 106.45-2.55L106.45-2.55L106.45-2.55Q106.85-2.37 106.85-2.02L106.85-2.02L106.85-2.02Q106.85-0.31 106.36 0.12L106.36 0.12L106.36 0.12Q105.04 0 103.14 0L103.14 0L103.14 0Q101.16 0 99.45 0.12L99.45 0.12L99.45 0.12Q98.96-0.32 98.96-2.02L98.96-2.02L98.96-2.02Q98.96-2.37 99.36-2.55L99.36-2.55L99.36-2.55Q99.76-2.72 100.31-2.72L100.31-2.72L100.31-2.72Q100.88-2.72 101.06-2.97L101.06-2.97L101.06-2.97Q101.24-3.21 101.24-3.65L101.24-3.65L101.24-11.51L101.24-11.51Q101.24-12.29 100.79-12.61L100.79-12.61L100.79-12.61Q100.34-12.93 99.07-12.99L99.07-12.99L99.07-12.99Q98.88-13.04 98.83-13.18L98.83-13.18L98.83-13.18Q98.77-13.33 98.77-13.81L98.77-13.81L98.77-13.81Q98.77-14.56 98.94-15.13L98.94-15.13L98.94-15.13Q99.10-15.70 99.26-15.79L99.26-15.79L99.26-15.79Q100.39-15.63 101.44-15.63L101.44-15.63L101.44-15.63Q102.14-15.63 102.92-15.71L102.92-15.71L102.92-15.71Q103.70-15.79 103.74-15.79L103.74-15.79L103.74-15.79Q104.25-15.79 104.41-15.53L104.41-15.53L104.41-15.53Q104.56-15.28 104.56-14.36ZM123.00-8.66L123.00-8.66L123.00-8.66Q123.00-7.98 122.66-7.62L122.66-7.62L122.66-7.62Q122.31-7.27 121.36-7.27L121.36-7.27L111.25-7.27L111.25-7.27Q111.31-5.93 111.72-4.97L111.72-4.97L111.72-4.97Q112.13-4.00 112.81-3.45L112.81-3.45L112.81-3.45Q113.48-2.90 114.29-2.64L114.29-2.64L114.29-2.64Q115.09-2.39 116.04-2.39L116.04-2.39L116.04-2.39Q117.38-2.39 118.77-2.86L118.77-2.86L118.77-2.86Q120.16-3.33 121.29-4.17L121.29-4.17L121.29-4.17Q122.12-3.19 122.12-2.24L122.12-2.24L122.12-2.24Q122.12-1.61 121.29-1.00L121.29-1.00L121.29-1.00Q120.45-0.40 119.03 0L119.03 0L119.03 0Q117.61 0.40 116.07 0.40L116.07 0.40L116.07 0.40Q114.81 0.40 113.68 0.15L113.68 0.15L113.68 0.15Q112.54-0.10 111.45-0.73L111.45-0.73L111.45-0.73Q110.36-1.35 109.57-2.30L109.57-2.30L109.57-2.30Q108.78-3.25 108.30-4.75L108.30-4.75L108.30-4.75Q107.81-6.24 107.81-8.13L107.81-8.13L107.81-8.13Q107.81-9.98 108.52-11.51L108.52-11.51L108.52-11.51Q109.22-13.05 110.38-14.03L110.38-14.03L110.38-14.03Q111.53-15 112.96-15.53L112.96-15.53L112.96-15.53Q114.39-16.05 115.90-16.05L115.90-16.05L115.90-16.05Q117.01-16.05 118.04-15.78L118.04-15.78L118.04-15.78Q119.06-15.50 119.97-14.90L119.97-14.90L119.97-14.90Q120.88-14.31 121.55-13.45L121.55-13.45L121.55-13.45Q122.23-12.60 122.61-11.37L122.61-11.37L122.61-11.37Q123.00-10.14 123.00-8.66ZM111.34-9.54L120.04-9.54L120.04-9.54Q119.91-11.57 118.76-12.63L118.76-12.63L118.76-12.63Q117.61-13.70 116.02-13.70L116.02-13.70L116.02-13.70Q114.32-13.70 112.93-12.56L112.93-12.56L112.93-12.56Q111.55-11.43 111.34-9.54L111.34-9.54Z" fill="#000000"></path></g></g><style>text {
  font-size: 64px;
  font-family: Arial Black;
  dominant-baseline: central;
  text-anchor: middle;
}</style></svg>